<?xml version="1.0" encoding="utf-8"?>
<!-- Generator: Adobe Illustrator 25.0.0, SVG Export Plug-In . SVG Version: 6.00 Build 0)  -->
<svg version="1.1" id="Layer_1" xmlns="http://www.w3.org/2000/svg" xmlns:xlink="http://www.w3.org/1999/xlink" x="0px" y="0px"
	 viewBox="0 0 500 500" style="enable-background:new 0 0 500 500;" xml:space="preserve">
<style type="text/css">
	.st0{display:none;}
	.st1{display:inline;}
	.st2{display:none;fill:none;stroke:#000000;stroke-width:16;stroke-linecap:round;stroke-linejoin:round;stroke-miterlimit:22.4;}
	.st3{display:inline;fill:#010101;}
	.st4{stroke:#000000;stroke-width:5;stroke-miterlimit:10;}
</style>
<g class="st0">
	<path class="st1" d="M335.5,77.4c-5.6-2.8-12.3-2.4-17.5,1.1s-8.2,9.4-7.8,15.7c0.4,6.2,4.1,11.8,9.7,14.6
		c42.7,21.2,73.5,60.6,83.7,107.1s-1.2,95.2-31,132.4C342.7,385.4,297.7,407,250,407s-92.7-21.6-122.6-58.7s-41.3-85.8-31-132.4
		c10.2-46.5,41-85.9,83.7-107.1c5.6-2.8,9.3-8.4,9.7-14.6S187.2,82,182,78.5s-11.9-3.9-17.5-1.1c-38.8,19.3-70,51.1-88.5,90.3
		C57.6,207,52.9,251.3,62.8,293.5s33.8,79.9,67.8,106.8s76.1,41.6,119.4,41.6c43.4,0,85.5-14.7,119.4-41.6
		c34-26.9,57.9-64.6,67.8-106.8s5.2-86.5-13.2-125.8C405.5,128.5,374.3,96.6,335.5,77.4L335.5,77.4z"/>
	<path class="st1" d="M249.8,268.1c4.6,0,9.1-1.8,12.4-5.1s5.1-7.7,5.1-12.4v-175c0-6.3-3.3-12-8.8-15.2s-12.1-3.1-17.5,0
		s-8.8,8.9-8.8,15.2v175c0,4.6,1.8,9.1,5.1,12.4S245.1,268.1,249.8,268.1z"/>
</g>
<g class="st0">
	<path class="st1" d="M341,32c-2.2-1.2-4.7-1.3-7.1-0.5c-2.3,0.8-4.2,2.6-5.1,4.9c-0.9,2.3-0.9,4.9,0.2,7.1c1.1,2.2,3,3.9,5.4,4.6
		c46.6,19.5,85.1,54.5,108.8,99.2c23.7,44.6,31.3,96.1,21.3,145.7c-9.9,49.6-36.7,94.2-75.8,126.2s-88.1,49.5-138.6,49.5
		s-99.5-17.5-138.6-49.5S45.6,342.6,35.7,293S33.3,192,57,147.3c23.7-44.6,62.2-79.7,108.8-99.2c2.4-0.7,4.3-2.4,5.4-4.6
		c1.1-2.2,1.1-4.8,0.2-7.1c-0.9-2.3-2.8-4.1-5.1-4.9c-2.3-0.8-4.9-0.7-7.1,0.5C108.6,53,67.1,90.8,41.4,139
		c-25.6,48.2-33.8,103.9-23,157.4c10.7,53.5,39.7,101.7,81.9,136.3s95.1,53.5,149.8,53.5s107.5-18.9,149.8-53.5
		c42.2-34.6,71.2-82.8,81.9-136.3c10.7-53.5,2.6-109.1-23.1-157.4C432.9,90.8,391.4,53,341,32L341,32z"/>
	<path class="st1" d="M250,258.8c2.3,0,4.5-0.9,6.2-2.6s2.6-3.9,2.6-6.2V22.5c0-4.8-3.9-8.8-8.8-8.8s-8.8,3.9-8.8,8.8V250
		c0,2.3,0.9,4.5,2.6,6.2S247.7,258.8,250,258.8z"/>
</g>
<path class="st2" d="M195.7,419.2L97.5,477l6.7-113.8L309.8,26.6c2.2-3.6,7-4.8,10.6-2.6l78.4,48c3.6,2.2,4.8,7,2.6,10.6
	L195.7,419.2z"/>
<path class="st2" d="M277,80.3l91.6,56"/>
<path class="st2" d="M103.9,363.2l91.6,56"/>
<g class="st0">
	<path class="st3" d="M455.6,96.9H44.4c-4.8,0-8.8-3.9-8.8-8.8s3.9-8.8,8.8-8.8h411.2c4.8,0,8.8,3.9,8.8,8.8S460.5,96.9,455.6,96.9z
		"/>
	<path class="st3" d="M306.9,96.9H184.4c-4.8,0-8.8-3.9-8.8-8.8c0-16.2,6.5-31.8,17.9-43.3c11.5-11.5,27.1-17.9,43.3-17.9h17.5
		c16.2,0,31.8,6.5,43.3,17.9c11.5,11.5,17.9,27.1,17.9,43.3c0,2.3-0.9,4.5-2.6,6.2C311.4,96,309.2,96.9,306.9,96.9z M194,79.4h103.2
		c-2-9.9-7.4-18.7-15.2-25.1c-7.8-6.4-17.6-9.9-27.6-9.9h-17.5c-10.1,0-19.8,3.5-27.6,9.9C201.4,60.6,196.1,69.5,194,79.4z"/>
	<path class="st3" d="M245.6,411.9c-4.8,0-8.8-3.9-8.8-8.8v-245c0-4.8,3.9-8.8,8.8-8.8s8.8,3.9,8.8,8.8v245c0,2.3-0.9,4.5-2.6,6.2
		S247.9,411.9,245.6,411.9z"/>
	<path class="st3" d="M315.6,411.9c-4.8-0.4-8.4-4.5-8.1-9.3l17.5-245c0.5-4.7,4.5-8.3,9.3-8.1c4.8,0.4,8.4,4.5,8,9.3l-17.5,245
		C324.5,408.6,320.4,412.2,315.6,411.9L315.6,411.9z"/>
	<path class="st3" d="M175.6,411.9c-4.6,0-8.4-3.5-8.8-8.1l-17.5-245c-0.3-4.8,3.3-8.9,8.1-9.3c4.7-0.2,8.8,3.3,9.3,8.1l17.5,245
		c0.3,4.8-3.3,8.9-8.1,9.3L175.6,411.9z"/>
	<path class="st3" d="M306.5,473.1H184c-19.1-0.1-37.6-7.1-52-19.7c-14.4-12.7-23.6-30.1-26.1-49.1L70,124.3
		c-0.6-4.8,2.7-9.2,7.5-9.8c4.8-0.5,9.1,2.8,9.8,7.5l35.9,280c1.9,14.7,9.2,28.3,20.3,38.1c11.2,9.8,25.5,15.2,40.4,15.3h122.5
		c14.8,0,29.2-5.4,40.3-15.2c11.2-9.8,18.4-23.3,20.4-38l35.9-280c0.7-4.7,5-8,9.8-7.5c4.8,0.6,8.1,5,7.5,9.8l-35.9,280
		c-2.5,18.9-11.8,36.3-26.1,49C344.1,466.1,325.6,473.1,306.5,473.1L306.5,473.1z"/>
</g>
<path class="st4" d="M114,268.5v193.8c0,12.9,10.1,23,23,23h228.5c12.9,0,23-10.1,23-23l0-216.2c41.4-6.7,71.7-42.6,71.7-85.1
	c0-38.1-26.9-72.2-64.4-82.3c-12.9-3.4-25.8-3.9-39.2-1.1c-15.7-38.6-53.2-63.8-94.6-63.8c-39.2,0-75,22.4-91.8,57.7
	c-12.9-3.4-26.3-3.9-39.8-2.2c-45.4,6.2-81.8,44.2-87.4,89.6C37.9,208.6,67.6,253.4,114,268.5L114,268.5z M54.1,160.5
	c4.5-40.3,37-73.9,77.3-79.5c4.5-0.6,9-1.1,12.9-1.1c9,0,26.9,3.9,26.9,3.9s29.7,6.2,46.5,34.2c1.1,1.7,2.8,2.8,5,2.8
	c1.1,0,1.7,0,2.8-0.6c2.8-1.7,3.4-5,2.2-7.8c-14-24.1-35.3-34.2-46.5-37.5c15.7-30.2,46.5-49.3,81.2-49.3c38.6,0,73.4,24.6,86.2,61
	c1.1,2.8,3.9,4.5,6.7,3.4c12.9-3.4,25.8-3.9,38.1-0.6c33,9,56,38.1,56,71.7c0,38.6-28.6,70.6-66.6,74.5c-2.8,0.6-5,2.8-5,5.6v221.2
	c0,6.7-5,11.8-11.8,11.8H137c-6.7,0-11.8-5-11.8-11.8V264.1c0-2.8-1.7-4.5-3.9-5.6C77.6,246.7,49.1,205.8,54.1,160.5L54.1,160.5z"/>
<path class="st4" d="M163.3,452.8c3.4,0,5.6-2.2,5.6-5.6l0-81.8c0-3.4-2.2-5.6-5.6-5.6c-3.4,0-5.6,2.2-5.6,5.6v81.8
	C157.7,450.5,160.5,452.8,163.3,452.8L163.3,452.8z"/>
<path class="st4" d="M198.6,452.8c3.4,0,5.6-2.2,5.6-5.6v-81.8c0-3.4-2.2-5.6-5.6-5.6c-3.4,0-5.6,2.2-5.6,5.6v81.8
	C193,450.5,195.8,452.8,198.6,452.8L198.6,452.8z"/>
<path class="st4" d="M234.4,452.8c3.4,0,5.6-2.2,5.6-5.6v-81.8c0-3.4-2.2-5.6-5.6-5.6c-3.4,0-5.6,2.2-5.6,5.6v81.8
	C228.8,450.5,231.1,452.8,234.4,452.8L234.4,452.8z"/>
<path class="st4" d="M269.7,452.8c3.4,0,5.6-2.2,5.6-5.6v-81.8c0-3.4-2.2-5.6-5.6-5.6c-3.4,0-5.6,2.2-5.6,5.6v81.8
	C264.1,450.5,266.4,452.8,269.7,452.8L269.7,452.8z"/>
<path class="st4" d="M305,452.8c3.4,0,5.6-2.2,5.6-5.6l0-81.8c0-3.4-2.2-5.6-5.6-5.6c-3.4,0-5.6,2.2-5.6,5.6v81.8
	C299.4,450.5,301.6,452.8,305,452.8L305,452.8z"/>
<path class="st4" d="M340.3,452.8c3.4,0,5.6-2.2,5.6-5.6v-81.8c0-3.4-2.2-5.6-5.6-5.6c-3.4,0-5.6,2.2-5.6,5.6v81.8
	C334.7,450.5,336.9,452.8,340.3,452.8L340.3,452.8z"/>
</svg>
